<svg width="104" height="68" viewBox="0 0 104 68" fill="none" xmlns="http://www.w3.org/2000/svg">
<path fill-rule="evenodd" clip-rule="evenodd" d="M1.76765 0.1228L5.64313 2.55195L4.58094 4.24658L0.70546 1.81742L1.76765 0.1228ZM13.3941 7.41026L21.1451 12.2686L20.0829 13.9632L12.3319 9.10488L13.3941 7.41026ZM28.896 17.1269L36.647 21.9852L35.5848 23.6798L27.8338 18.8215L28.896 17.1269ZM44.3979 26.8435L52.1489 31.7018L51.0867 33.3964L43.3357 28.5381L44.3979 26.8435ZM59.8999 36.5601L67.6508 41.4184L66.5886 43.113L58.8377 38.2547L59.8999 36.5601ZM75.4018 46.2767L83.1527 51.135L82.0905 52.8297L74.3396 47.9713L75.4018 46.2767ZM93.6491 60.0745C93.4971 60.437 93.3857 60.8232 93.3213 61.2287C92.8885 63.956 94.7485 66.5177 97.4758 66.9506C100.203 67.3834 102.765 65.5234 103.198 62.7961C103.631 60.0688 101.771 57.507 99.0432 57.0742C97.4277 56.8178 95.8702 57.3659 94.7789 58.4223L90.9037 55.9933L89.8415 57.688L93.6491 60.0745Z" fill="url(#paint0_linear_209_14)"/>
<defs>
<linearGradient id="paint0_linear_209_14" x1="-30.1479" y1="1.2512" x2="-36.1355" y2="41.0834" gradientUnits="userSpaceOnUse">
<stop stop-color="#FF0E0E"/>
<stop offset="0.494792" stop-color="#6122A5"/>
<stop offset="0.971446" stop-color="#2C41F8"/>
</linearGradient>
</defs>
</svg>
