<svg width="32" height="118" viewBox="0 0 32 118" fill="none" xmlns="http://www.w3.org/2000/svg">
<path fill-rule="evenodd" clip-rule="evenodd" d="M2.83018 0.635541L3.83753 5.09708L1.88664 5.53757L0.879289 1.07602L2.83018 0.635541ZM5.85224 14.0202L7.86695 22.9433L5.91605 23.3837L3.90135 14.4607L5.85224 14.0202ZM9.88165 31.8664L11.8964 40.7894L9.94547 41.2299L7.93076 32.3068L9.88165 31.8664ZM13.9111 49.7125L15.9258 58.6356L13.9749 59.0761L11.9602 50.153L13.9111 49.7125ZM17.9405 67.5587L19.9552 76.4818L18.0043 76.9223L15.9896 67.9992L17.9405 67.5587ZM21.9699 85.4049L23.9846 94.328L22.0337 94.7684L20.019 85.8454L21.9699 85.4049ZM25.0381 108.075C24.6739 108.222 24.3213 108.416 23.9883 108.656C21.7481 110.27 21.2412 113.395 22.8559 115.635C24.4706 117.876 27.5956 118.383 29.8357 116.768C32.0758 115.153 32.5828 112.028 30.9681 109.788C30.0116 108.461 28.5251 107.742 27.0066 107.712L25.9993 103.251L24.0484 103.692L25.0381 108.075Z" fill="url(#paint0_linear_209_10)"/>
<defs>
<linearGradient id="paint0_linear_209_10" x1="-20.4603" y1="-21.2146" x2="-52.942" y2="2.60542" gradientUnits="userSpaceOnUse">
<stop stop-color="#FF0E0E"/>
<stop offset="0.494792" stop-color="#6122A5"/>
<stop offset="0.971446" stop-color="#2C41F8"/>
</linearGradient>
</defs>
</svg>
