<svg width="85" height="89" viewBox="0 0 85 89" fill="none" xmlns="http://www.w3.org/2000/svg">
<path fill-rule="evenodd" clip-rule="evenodd" d="M84.9202 1.38687L81.7828 4.71498L80.3275 3.34305L83.465 0.0149465L84.9202 1.38687ZM75.5078 11.3712L69.2328 18.0274L67.7775 16.6555L74.0525 9.99926L75.5078 11.3712ZM62.9578 24.6836L56.6828 31.3398L55.2275 29.9679L61.5025 23.3117L62.9578 24.6836ZM50.4078 37.996L44.1328 44.6522L42.6776 43.2803L48.9526 36.6241L50.4078 37.996ZM37.8579 51.3084L31.5829 57.9646L30.1276 56.5927L36.4026 49.9365L37.8579 51.3084ZM25.3079 64.6209L19.0329 71.2771L17.5776 69.9051L23.8526 63.2489L25.3079 64.6209ZM8.22016 79.8311C7.89429 79.6114 7.53711 79.4269 7.15197 79.2849C4.56122 78.3291 1.6862 79.6545 0.730437 82.2452C-0.22533 84.836 1.10008 87.711 3.69083 88.6668C6.28157 89.6225 9.15659 88.2971 10.1124 85.7064C10.6785 84.1717 10.4442 82.5373 9.62064 81.2612L12.7579 77.9333L11.3027 76.5613L8.22016 79.8311Z" fill="url(#paint0_linear_209_6)"/>
<defs>
<linearGradient id="paint0_linear_209_6" x1="90.0299" y1="-30.1372" x2="52.127" y2="-43.7686" gradientUnits="userSpaceOnUse">
<stop stop-color="#FF0E0E"/>
<stop offset="0.494792" stop-color="#6122A5"/>
<stop offset="0.971446" stop-color="#2C41F8"/>
</linearGradient>
</defs>
</svg>
